<svg width="25" height="25" viewBox="0 0 25 25" fill="none" xmlns="http://www.w3.org/2000/svg">
<g clip-path="url(#clip0_1988_4214)">
<path d="M24.9448 24.2865L20.8606 16.4246L21.6022 15.8041C21.7132 15.7112 21.7773 15.5741 21.7773 15.4295V3.63769C21.7773 1.63193 20.1454 0 18.1396 0H6.86033C4.85456 0 3.22263 1.63193 3.22263 3.63769V5.32226C3.22263 5.59177 3.44141 5.81055 3.71091 5.81055C3.98061 5.81055 4.1992 5.59177 4.1992 5.32226V3.63769C4.1992 2.17037 5.393 0.976562 6.86033 0.976562H18.1396C19.6069 0.976562 20.8008 2.17037 20.8008 3.63769V15.2014L16.9685 18.408H15.5761V17.7C15.5761 17.4305 15.3576 17.2117 15.0879 17.2117C14.8182 17.2117 14.5996 17.4305 14.5996 17.7V18.408H13.1164V17.7C13.1164 17.4305 12.8978 17.2117 12.6283 17.2117C12.3586 17.2117 12.1401 17.4305 12.1401 17.7V18.408H10.6569V17.7C10.6569 17.4305 10.4383 17.2117 10.1686 17.2117C9.89911 17.2117 9.68034 17.4305 9.68034 17.7V18.408H8.03144L4.1992 15.2014V9.91211C4.1992 9.64241 3.98061 9.42383 3.71091 9.42383C3.44141 9.42383 3.22263 9.64241 3.22263 9.91211V15.4297C3.22263 15.5743 3.28672 15.7114 3.39773 15.8041L4.1393 16.4246L0.0551001 24.2865C-0.069259 24.5256 0.0240103 24.8205 0.263192 24.9449C0.33529 24.9823 0.412156 24.9998 0.487877 24.9998C0.664307 24.9998 0.834824 24.9041 0.921608 24.7366L4.90625 17.0664L5.58107 17.631L3.01092 24.3368C2.91441 24.5886 3.04029 24.8709 3.29206 24.9676C3.34966 24.9895 3.4086 25 3.46677 25C3.66304 25 3.84824 24.8806 3.92282 24.6862L4.43895 23.3396H16.8457C17.1152 23.3396 17.334 23.1211 17.334 22.8514C17.334 22.5817 17.1152 22.3631 16.8457 22.3631H4.81317L5.1893 21.3819C5.21009 21.3846 5.23088 21.3865 5.25243 21.3865H19.7305C19.7576 21.3865 19.7839 21.3839 19.8097 21.3797L21.0771 24.6862C21.1517 24.8806 21.3367 25 21.5332 25C21.5914 25 21.6503 24.9895 21.7079 24.9676C21.9597 24.8709 22.0855 24.5886 21.989 24.3368L19.4189 17.631L20.0937 17.0664L24.0783 24.7366C24.1653 24.9041 24.3356 24.9998 24.5121 24.9998C24.5878 24.9998 24.6649 24.9823 24.7368 24.9449C24.9759 24.8205 25.0692 24.5258 24.9448 24.2865ZM19.4381 20.41H5.5618L6.373 18.2936L7.54087 19.2709C7.62861 19.3443 7.73961 19.3846 7.85425 19.3846H17.1459C17.2605 19.3846 17.3713 19.3443 17.4591 19.2709L18.6269 18.2936L19.4381 20.41Z" fill="#0D87BE"/>
<path d="M18.8477 22.3633C18.7191 22.3633 18.5932 22.4155 18.5024 22.5063C18.4116 22.5973 18.3594 22.7232 18.3594 22.8516C18.3594 22.9801 18.4114 23.106 18.5024 23.1968C18.5932 23.2876 18.7191 23.3398 18.8477 23.3398C18.976 23.3398 19.1019 23.2876 19.1927 23.1968C19.2837 23.106 19.3359 22.9801 19.3359 22.8516C19.3359 22.7232 19.2837 22.5973 19.1927 22.5063C19.1019 22.4155 18.976 22.3633 18.8477 22.3633Z" fill="#0D87BE"/>
<path d="M19.4336 4.98047C19.4336 4.17271 18.7765 3.51562 17.9687 3.51562H7.03125C6.22368 3.51562 5.56641 4.17271 5.56641 4.98047V9.27734C5.56641 10.0851 6.22368 10.7422 7.03125 10.7422H17.9687C18.7765 10.7422 19.4336 10.0851 19.4336 9.27734V4.98047ZM6.54297 9.27734V4.98047C6.54297 4.71115 6.76212 4.49219 7.03125 4.49219H12.0117V9.76562H7.03125C6.76212 9.76562 6.54297 9.54647 6.54297 9.27734ZM18.457 9.27734C18.457 9.54647 18.2379 9.76562 17.9687 9.76562H12.9883V4.49219H17.9687C18.2379 4.49219 18.457 4.71115 18.457 4.98047V9.27734Z" fill="#0D87BE"/>
<path d="M7.20996 15.332C8.1253 15.332 8.87012 14.5872 8.87012 13.6719C8.87012 12.7563 8.1253 12.0117 7.20996 12.0117C6.29462 12.0117 5.5498 12.7563 5.5498 13.6719C5.5498 14.5872 6.29462 15.332 7.20996 15.332ZM7.20996 12.9883C7.58685 12.9883 7.89355 13.2948 7.89355 13.6719C7.89355 14.0488 7.58685 14.3555 7.20996 14.3555C6.83307 14.3555 6.52637 14.0488 6.52637 13.6719C6.52637 13.2948 6.83307 12.9883 7.20996 12.9883Z" fill="#0D87BE"/>
<path d="M17.7734 12.0117C16.8579 12.0117 16.1133 12.7563 16.1133 13.6719C16.1133 14.5872 16.8579 15.332 17.7734 15.332C18.6888 15.332 19.4336 14.5872 19.4336 13.6719C19.4336 12.7563 18.6888 12.0117 17.7734 12.0117ZM17.7734 14.3555C17.3964 14.3555 17.0898 14.0488 17.0898 13.6719C17.0898 13.2948 17.3964 12.9883 17.7734 12.9883C18.1503 12.9883 18.457 13.2948 18.457 13.6719C18.457 14.0488 18.1503 14.3555 17.7734 14.3555Z" fill="#0D87BE"/>
<path d="M15.0882 12.0176H10.1689C9.89944 12.0176 9.68066 12.2362 9.68066 12.5059C9.68066 12.7756 9.89944 12.9941 10.1689 12.9941H15.0882C15.3579 12.9941 15.5765 12.7756 15.5765 12.5059C15.5765 12.2362 15.3579 12.0176 15.0882 12.0176Z" fill="#0D87BE"/>
<path d="M15.0882 14.3555H10.1689C9.89944 14.3555 9.68066 14.5741 9.68066 14.8437C9.68066 15.1133 9.89944 15.332 10.1689 15.332H15.0882C15.3579 15.332 15.5765 15.1133 15.5765 14.8437C15.5765 14.5741 15.3579 14.3555 15.0882 14.3555Z" fill="#0D87BE"/>
<path d="M3.71094 8.02344C3.83949 8.02344 3.96538 7.97175 4.05617 7.88039C4.14696 7.7896 4.19922 7.66409 4.19922 7.53516C4.19922 7.40679 4.14696 7.28091 4.05617 7.19012C3.96538 7.09914 3.83949 7.04688 3.71094 7.04688C3.58257 7.04688 3.45669 7.09914 3.36571 7.19012C3.27492 7.28091 3.22266 7.40679 3.22266 7.53516C3.22266 7.66409 3.27492 7.7896 3.36571 7.88039C3.45669 7.97175 3.58257 8.02344 3.71094 8.02344Z" fill="#0D87BE"/>
</g>
<defs>
<clipPath id="clip0_1988_4214">
<rect width="25" height="25" fill="white"/>
</clipPath>
</defs>
</svg>
