<svg width="25" height="24" viewBox="0 0 25 24" fill="none" xmlns="http://www.w3.org/2000/svg">
<mask id="mask0_944_2767" style="mask-type:alpha" maskUnits="userSpaceOnUse" x="0" y="0" width="25" height="24">
<rect x="0.333984" width="24" height="24" fill="#D9D9D9"/>
</mask>
<g mask="url(#mask0_944_2767)">
<path d="M13.759 20.7L7.60898 14.3C7.52565 14.2167 7.45898 14.1125 7.40898 13.9875C7.35898 13.8625 7.33398 13.7333 7.33398 13.6V13C7.33398 12.7167 7.42982 12.4792 7.62148 12.2875C7.81315 12.0958 8.05065 12 8.33398 12H10.834C11.7173 12 12.4798 11.7125 13.1215 11.1375C13.7632 10.5625 14.1507 9.85 14.284 9H7.33398C7.05065 9 6.81315 8.90417 6.62148 8.7125C6.42982 8.52083 6.33398 8.28333 6.33398 8C6.33398 7.71667 6.42982 7.47917 6.62148 7.2875C6.81315 7.09583 7.05065 7 7.33398 7H13.984C13.7007 6.41667 13.2798 5.9375 12.7215 5.5625C12.1632 5.1875 11.534 5 10.834 5H7.33398C7.05065 5 6.81315 4.90417 6.62148 4.7125C6.42982 4.52083 6.33398 4.28333 6.33398 4C6.33398 3.71667 6.42982 3.47917 6.62148 3.2875C6.81315 3.09583 7.05065 3 7.33398 3H17.334C17.6173 3 17.8548 3.09583 18.0465 3.2875C18.2382 3.47917 18.334 3.71667 18.334 4C18.334 4.28333 18.2382 4.52083 18.0465 4.7125C17.8548 4.90417 17.6173 5 17.334 5H15.084C15.3173 5.28333 15.5257 5.59167 15.709 5.925C15.8923 6.25833 16.034 6.61667 16.134 7H17.334C17.6173 7 17.8548 7.09583 18.0465 7.2875C18.2382 7.47917 18.334 7.71667 18.334 8C18.334 8.28333 18.2382 8.52083 18.0465 8.7125C17.8548 8.90417 17.6173 9 17.334 9H16.309C16.1757 10.4167 15.5923 11.6042 14.559 12.5625C13.5257 13.5208 12.284 14 10.834 14H10.109L15.209 19.3C15.509 19.6167 15.5715 19.9792 15.3965 20.3875C15.2215 20.7958 14.9173 21 14.484 21C14.3507 21 14.2215 20.975 14.0965 20.925C13.9715 20.875 13.859 20.8 13.759 20.7Z" fill="#F14040"/>
</g>
</svg>
