<svg width="45" height="45" viewBox="0 0 45 45" fill="none" xmlns="http://www.w3.org/2000/svg">
<rect x="-0.5" y="0.5" width="44" height="44" rx="22" transform="matrix(-1 0 0 1 44 0)" fill="white" stroke="#151515"/>
<g clip-path="url(#clip0_238_5306)">
<path d="M25.1617 16.8286C25.6167 17.2836 25.6167 18.0186 25.1617 18.4736L20.635 23.0002L25.1617 27.5269C25.6167 27.9819 25.6167 28.7169 25.1617 29.1719C24.7067 29.6269 23.9717 29.6269 23.5167 29.1719L18.1617 23.8169C17.7067 23.3619 17.7067 22.6269 18.1617 22.1719L23.5167 16.8169C23.96 16.3736 24.7067 16.3736 25.1617 16.8286Z" fill="#151515"/>
</g>
<defs>
<clipPath id="clip0_238_5306">
<rect width="28" height="28" fill="white" transform="matrix(-1 0 0 1 36 9)"/>
</clipPath>
</defs>
</svg>
