<svg width="24" height="24" viewBox="0 0 24 24" fill="none" xmlns="http://www.w3.org/2000/svg">
<g clip-path="url(#clip0_1988_4227)">
<path d="M17.3051 9.59961H16.7998C16.5905 9.59961 16.4209 9.76925 16.4209 9.97855C16.4209 10.1878 16.5905 10.3575 16.7998 10.3575H17.3051C17.5144 10.3575 17.684 10.1878 17.684 9.97855C17.684 9.76925 17.5144 9.59961 17.3051 9.59961Z" fill="#1ABD83"/>
<path d="M14.6527 12C14.6527 11.7907 14.4831 11.6211 14.2737 11.6211H6.18948C5.98014 11.6211 5.81055 11.7907 5.81055 12C5.81055 12.2094 5.98014 12.379 6.18948 12.379H14.2737C14.483 12.379 14.6527 12.2094 14.6527 12Z" fill="#1ABD83"/>
<path d="M6.18948 19.2002C5.98014 19.2002 5.81055 19.3698 5.81055 19.5791C5.81055 19.7884 5.98014 19.9581 6.18948 19.9581H8.21055C8.41989 19.9581 8.58948 19.7884 8.58948 19.5791C8.58948 19.3698 8.41989 19.2002 8.21055 19.2002H6.18948Z" fill="#1ABD83"/>
<path d="M16.1937 20.4126C16.4546 20.7607 16.8702 20.9685 17.3052 20.9685C17.7403 20.9685 18.1558 20.7607 18.4168 20.4127L23.7221 13.339C24.1818 12.7261 24.0571 11.8535 23.4441 11.3937C22.8312 10.9341 21.9585 11.0587 21.4989 11.6716L21.2209 12.0422V1.38947C21.221 0.623344 20.5976 0 19.8315 0H3.66319C2.89697 0 2.27367 0.623344 2.27367 1.38947V1.5158H1.38947C0.623297 1.5158 0 2.13914 0 2.90527V21.0947C0 21.8609 0.623297 22.4842 1.38947 22.4842H2.27367V22.6105C2.27367 23.3767 2.89697 24 3.66314 24H19.8315C20.5976 24 21.2209 23.3767 21.2209 22.6105V18.5684C21.2209 18.3591 21.0513 18.1895 20.842 18.1895C20.6326 18.1895 20.463 18.3591 20.463 18.5684V22.6105C20.463 22.9588 20.1797 23.2421 19.8315 23.2421H3.66319C3.31491 23.2421 3.03159 22.9588 3.03159 22.6105V6.44213C3.03159 6.23278 2.86195 6.06319 2.65266 6.06319C2.44336 6.06319 2.27372 6.23283 2.27372 6.44213V21.7263H1.38947C1.04119 21.7263 0.757875 21.443 0.757875 21.0947V2.90527C0.757875 2.55698 1.04119 2.27367 1.38947 2.27367H2.27367V4.92628C2.27367 5.13562 2.44331 5.30522 2.65261 5.30522C2.86191 5.30522 3.03155 5.13558 3.03155 4.92628V1.38947C3.03155 1.04119 3.31486 0.757875 3.66314 0.757875H19.8315C20.1797 0.757875 20.463 1.04119 20.463 1.38947V13.0105C20.463 13.0239 20.4637 13.037 20.4651 13.05L17.3052 17.2632L16.1432 15.7137C15.9205 15.4168 15.5955 15.2243 15.2281 15.1719C14.8605 15.1194 14.4947 15.2132 14.1979 15.4358C13.901 15.6585 13.7085 15.9835 13.6561 16.3509C13.6036 16.7184 13.6974 17.0842 13.92 17.3811L16.1937 20.4126ZM14.4063 16.4581C14.4302 16.2912 14.5177 16.1434 14.6527 16.0421C14.7631 15.9592 14.8946 15.9157 15.0302 15.9157C15.0603 15.9157 15.0906 15.9179 15.1209 15.9222C15.2879 15.9461 15.4356 16.0335 15.5369 16.1685L17.0021 18.1222C17.0736 18.2176 17.186 18.2738 17.3052 18.2738C17.4244 18.2738 17.5368 18.2176 17.6084 18.1222L22.1052 12.1264C22.3141 11.8477 22.7108 11.7911 22.9894 12C23.268 12.209 23.3247 12.6057 23.1157 12.8843L17.8105 19.958V19.958C17.6918 20.1162 17.503 20.2106 17.3052 20.2106C17.1075 20.2106 16.9186 20.1161 16.8 19.958L14.5263 16.9264C14.4251 16.7914 14.3825 16.6251 14.4063 16.4581Z" fill="#1ABD83"/>
<path d="M12.1263 17.5576C12.1263 17.3483 11.9567 17.1787 11.7474 17.1787H6.18948C5.98014 17.1787 5.81055 17.3484 5.81055 17.5576C5.81055 17.7669 5.98014 17.9366 6.18948 17.9366H11.7474C11.9567 17.9366 12.1263 17.767 12.1263 17.5576Z" fill="#1ABD83"/>
<path d="M8.96878 6.56836C8.75944 6.56836 8.58984 6.73795 8.58984 6.9473C8.58984 7.15664 8.75944 7.32623 8.96878 7.32623H14.5267C14.736 7.32623 14.9056 7.15664 14.9056 6.9473C14.9056 6.73795 14.736 6.56836 14.5267 6.56836H8.96878Z" fill="#1ABD83"/>
<path d="M6.18948 10.3575H14.2737C14.483 10.3575 14.6526 10.1878 14.6526 9.97855C14.6526 9.76925 14.483 9.59961 14.2737 9.59961H6.18948C5.98014 9.59961 5.81055 9.76925 5.81055 9.97855C5.81055 10.1878 5.98019 10.3575 6.18948 10.3575Z" fill="#1ABD83"/>
<path d="M17.3052 4.54785H6.18948C5.98014 4.54785 5.81055 4.71745 5.81055 4.92679C5.81055 5.13613 5.98014 5.30573 6.18948 5.30573H17.3052C17.5146 5.30573 17.6842 5.13613 17.6842 4.92679C17.6842 4.71745 17.5145 4.54785 17.3052 4.54785Z" fill="#1ABD83"/>
<path d="M17.3051 11.6211H16.7998C16.5905 11.6211 16.4209 11.7907 16.4209 12C16.4209 12.2094 16.5905 12.379 16.7998 12.379H17.3051C17.5144 12.379 17.684 12.2093 17.684 12C17.684 11.7907 17.5144 11.6211 17.3051 11.6211Z" fill="#1ABD83"/>
</g>
<defs>
<clipPath id="clip0_1988_4227">
<rect width="24" height="24" fill="white"/>
</clipPath>
</defs>
</svg>
