<svg width="253" height="212" viewBox="0 0 253 212" fill="none" xmlns="http://www.w3.org/2000/svg">
<path d="M77.4929 77.13V78.166H74.7069V87H73.4329V78.166H70.6469V77.13H77.4929ZM82.2453 79.216C82.9826 79.216 83.6406 79.3747 84.2193 79.692C84.8073 80.0093 85.2646 80.4667 85.5913 81.064C85.9273 81.6613 86.0953 82.3613 86.0953 83.164C86.0953 83.9667 85.9273 84.6667 85.5913 85.264C85.2646 85.852 84.8073 86.3047 84.2193 86.622C83.6406 86.9393 82.9826 87.098 82.2453 87.098C81.508 87.098 80.8453 86.9393 80.2573 86.622C79.6786 86.3047 79.2213 85.852 78.8853 85.264C78.5493 84.6667 78.3813 83.9667 78.3813 83.164C78.3813 82.3613 78.5493 81.6613 78.8853 81.064C79.2213 80.4667 79.6786 80.0093 80.2573 79.692C80.8453 79.3747 81.508 79.216 82.2453 79.216ZM82.2453 80.336C81.788 80.336 81.3633 80.4387 80.9713 80.644C80.5886 80.8493 80.276 81.1667 80.0333 81.596C79.8 82.016 79.6833 82.5387 79.6833 83.164C79.6833 83.78 79.8 84.3027 80.0333 84.732C80.276 85.152 80.5886 85.4647 80.9713 85.67C81.3633 85.8753 81.788 85.978 82.2453 85.978C82.7026 85.978 83.1226 85.8753 83.5053 85.67C83.8973 85.4647 84.21 85.152 84.4433 84.732C84.686 84.3027 84.8073 83.78 84.8073 83.164C84.8073 82.5387 84.686 82.016 84.4433 81.596C84.21 81.1667 83.8973 80.8493 83.5053 80.644C83.1226 80.4387 82.7026 80.336 82.2453 80.336ZM91.4234 85.88V87H90.4714C89.6874 87 89.0994 86.8133 88.7074 86.44C88.3247 86.0667 88.1334 85.4413 88.1334 84.564V80.42H86.9854V79.314H88.1334V77.396H89.4214V79.314H91.4094V80.42H89.4214V84.592C89.4214 85.0867 89.5101 85.4273 89.6874 85.614C89.8741 85.7913 90.1914 85.88 90.6394 85.88H91.4234ZM96.1281 79.216C96.8747 79.216 97.5047 79.4027 98.0181 79.776C98.5407 80.1493 98.9047 80.6487 99.1101 81.274V79.314H100.384V87H99.1101V85.04C98.9047 85.6653 98.5407 86.1647 98.0181 86.538C97.5047 86.9113 96.8747 87.098 96.1281 87.098C95.4467 87.098 94.8401 86.9393 94.3081 86.622C93.7761 86.3047 93.3561 85.852 93.0481 85.264C92.7494 84.6667 92.6001 83.9667 92.6001 83.164C92.6001 82.3613 92.7494 81.6613 93.0481 81.064C93.3561 80.4667 93.7761 80.0093 94.3081 79.692C94.8401 79.3747 95.4467 79.216 96.1281 79.216ZM96.4921 80.35C95.7081 80.35 95.0781 80.602 94.6021 81.106C94.1354 81.6007 93.9021 82.2867 93.9021 83.164C93.9021 84.0413 94.1354 84.732 94.6021 85.236C95.0781 85.7307 95.7081 85.978 96.4921 85.978C96.9961 85.978 97.4441 85.8613 97.8361 85.628C98.2374 85.3947 98.5501 85.068 98.7741 84.648C98.9981 84.2187 99.1101 83.724 99.1101 83.164C99.1101 82.604 98.9981 82.1093 98.7741 81.68C98.5501 81.2507 98.2374 80.924 97.8361 80.7C97.4441 80.4667 96.9961 80.35 96.4921 80.35ZM103.686 76.64V87H102.412V76.64H103.686ZM113.673 77.032C114.821 77.032 115.782 77.3167 116.557 77.886C117.341 78.4553 117.868 79.23 118.139 80.21H116.795C116.562 79.6127 116.17 79.132 115.619 78.768C115.078 78.404 114.434 78.222 113.687 78.222C113.015 78.222 112.413 78.3807 111.881 78.698C111.349 79.006 110.929 79.4493 110.621 80.028C110.322 80.6067 110.173 81.288 110.173 82.072C110.173 82.8747 110.327 83.57 110.635 84.158C110.943 84.7367 111.368 85.1847 111.909 85.502C112.46 85.81 113.09 85.964 113.799 85.964C114.406 85.964 114.961 85.8333 115.465 85.572C115.969 85.3107 116.38 84.9327 116.697 84.438C117.024 83.934 117.22 83.346 117.285 82.674H113.407V81.722H118.363V82.898C118.279 83.682 118.036 84.3913 117.635 85.026C117.234 85.6607 116.692 86.1647 116.011 86.538C115.33 86.9113 114.555 87.098 113.687 87.098C112.735 87.098 111.895 86.888 111.167 86.468C110.439 86.0387 109.87 85.446 109.459 84.69C109.058 83.9247 108.857 83.052 108.857 82.072C108.857 81.092 109.058 80.224 109.459 79.468C109.87 78.7027 110.439 78.1053 111.167 77.676C111.895 77.2467 112.73 77.032 113.673 77.032ZM121.363 80.868C121.615 80.336 121.984 79.9253 122.469 79.636C122.955 79.3373 123.533 79.188 124.205 79.188V80.574H123.813C123.095 80.574 122.507 80.7607 122.049 81.134C121.592 81.498 121.363 82.1047 121.363 82.954V87H120.089V79.314H121.363V80.868ZM125.238 77.06C125.238 76.8267 125.318 76.64 125.476 76.5C125.635 76.3507 125.845 76.276 126.106 76.276C126.368 76.276 126.578 76.3507 126.736 76.5C126.895 76.64 126.974 76.8267 126.974 77.06C126.974 77.2933 126.895 77.4847 126.736 77.634C126.578 77.774 126.368 77.844 126.106 77.844C125.845 77.844 125.635 77.774 125.476 77.634C125.318 77.4847 125.238 77.2933 125.238 77.06ZM126.736 79.314V87H125.462V79.314H126.736ZM135.855 82.73C135.855 83.0007 135.836 83.234 135.799 83.43H129.653C129.681 84.3073 129.928 84.9653 130.395 85.404C130.871 85.8427 131.449 86.062 132.131 86.062C132.747 86.062 133.26 85.908 133.671 85.6C134.091 85.2827 134.347 84.8627 134.441 84.34H135.799C135.705 84.872 135.495 85.348 135.169 85.768C134.851 86.188 134.436 86.5147 133.923 86.748C133.409 86.9813 132.831 87.098 132.187 87.098C131.449 87.098 130.796 86.9393 130.227 86.622C129.657 86.3047 129.209 85.852 128.883 85.264C128.565 84.6667 128.407 83.9667 128.407 83.164C128.407 82.3613 128.565 81.6613 128.883 81.064C129.209 80.4667 129.657 80.0093 130.227 79.692C130.796 79.3747 131.449 79.216 132.187 79.216C132.933 79.216 133.582 79.3747 134.133 79.692C134.693 80.0093 135.117 80.434 135.407 80.966C135.705 81.498 135.855 82.086 135.855 82.73ZM134.567 82.814C134.595 82.2447 134.501 81.7687 134.287 81.386C134.072 81.0033 133.778 80.7187 133.405 80.532C133.031 80.3453 132.625 80.252 132.187 80.252C131.487 80.252 130.899 80.4713 130.423 80.91C129.947 81.3393 129.69 81.974 129.653 82.814H134.567ZM140.503 85.642L142.883 79.314H144.255L141.245 87H139.733L136.723 79.314H138.095L140.503 85.642ZM148.655 79.216C149.402 79.216 150.032 79.4027 150.545 79.776C151.068 80.1493 151.432 80.6487 151.637 81.274V79.314H152.911V87H151.637V85.04C151.432 85.6653 151.068 86.1647 150.545 86.538C150.032 86.9113 149.402 87.098 148.655 87.098C147.974 87.098 147.367 86.9393 146.835 86.622C146.303 86.3047 145.883 85.852 145.575 85.264C145.277 84.6667 145.127 83.9667 145.127 83.164C145.127 82.3613 145.277 81.6613 145.575 81.064C145.883 80.4667 146.303 80.0093 146.835 79.692C147.367 79.3747 147.974 79.216 148.655 79.216ZM149.019 80.35C148.235 80.35 147.605 80.602 147.129 81.106C146.663 81.6007 146.429 82.2867 146.429 83.164C146.429 84.0413 146.663 84.732 147.129 85.236C147.605 85.7307 148.235 85.978 149.019 85.978C149.523 85.978 149.971 85.8613 150.363 85.628C150.765 85.3947 151.077 85.068 151.301 84.648C151.525 84.2187 151.637 83.724 151.637 83.164C151.637 82.604 151.525 82.1093 151.301 81.68C151.077 81.2507 150.765 80.924 150.363 80.7C149.971 80.4667 149.523 80.35 149.019 80.35ZM158.985 79.188C159.881 79.188 160.604 79.4773 161.155 80.056C161.706 80.6253 161.981 81.4513 161.981 82.534V87H160.707V82.646C160.707 81.8807 160.511 81.2927 160.119 80.882C159.727 80.4713 159.195 80.266 158.523 80.266C157.823 80.266 157.263 80.4947 156.843 80.952C156.423 81.4 156.213 82.058 156.213 82.926V87H154.939V79.314H156.213V81.134C156.409 80.5087 156.754 80.028 157.249 79.692C157.753 79.356 158.332 79.188 158.985 79.188ZM167.337 79.216C168.317 79.216 169.129 79.4773 169.773 80C170.417 80.5227 170.814 81.2227 170.963 82.1H169.619C169.526 81.5493 169.269 81.12 168.849 80.812C168.438 80.4947 167.925 80.336 167.309 80.336C166.861 80.336 166.45 80.4387 166.077 80.644C165.713 80.8493 165.419 81.1667 165.195 81.596C164.971 82.016 164.859 82.5387 164.859 83.164C164.859 83.7893 164.971 84.3167 165.195 84.746C165.419 85.166 165.713 85.4787 166.077 85.684C166.45 85.8893 166.861 85.992 167.309 85.992C167.925 85.992 168.438 85.8333 168.849 85.516C169.269 85.1987 169.526 84.7647 169.619 84.214H170.963C170.814 85.1007 170.417 85.8053 169.773 86.328C169.129 86.8413 168.317 87.098 167.337 87.098C166.6 87.098 165.946 86.9393 165.377 86.622C164.808 86.3047 164.36 85.852 164.033 85.264C163.716 84.6667 163.557 83.9667 163.557 83.164C163.557 82.3613 163.716 81.6613 164.033 81.064C164.36 80.4667 164.808 80.0093 165.377 79.692C165.946 79.3747 166.6 79.216 167.337 79.216ZM179.7 82.73C179.7 83.0007 179.682 83.234 179.644 83.43H173.498C173.526 84.3073 173.774 84.9653 174.24 85.404C174.716 85.8427 175.295 86.062 175.976 86.062C176.592 86.062 177.106 85.908 177.516 85.6C177.936 85.2827 178.193 84.8627 178.286 84.34H179.644C179.551 84.872 179.341 85.348 179.014 85.768C178.697 86.188 178.282 86.5147 177.768 86.748C177.255 86.9813 176.676 87.098 176.032 87.098C175.295 87.098 174.642 86.9393 174.072 86.622C173.503 86.3047 173.055 85.852 172.728 85.264C172.411 84.6667 172.252 83.9667 172.252 83.164C172.252 82.3613 172.411 81.6613 172.728 81.064C173.055 80.4667 173.503 80.0093 174.072 79.692C174.642 79.3747 175.295 79.216 176.032 79.216C176.779 79.216 177.428 79.3747 177.978 79.692C178.538 80.0093 178.963 80.434 179.252 80.966C179.551 81.498 179.7 82.086 179.7 82.73ZM178.412 82.814C178.44 82.2447 178.347 81.7687 178.132 81.386C177.918 81.0033 177.624 80.7187 177.25 80.532C176.877 80.3453 176.471 80.252 176.032 80.252C175.332 80.252 174.744 80.4713 174.268 80.91C173.792 81.3393 173.536 81.974 173.498 82.814H178.412ZM183.775 79.216C184.643 79.216 185.338 79.4447 185.861 79.902C186.393 80.35 186.715 80.9567 186.827 81.722H185.609C185.553 81.2647 185.361 80.8913 185.035 80.602C184.717 80.3033 184.288 80.154 183.747 80.154C183.289 80.154 182.93 80.266 182.669 80.49C182.417 80.7047 182.291 80.9987 182.291 81.372C182.291 81.652 182.375 81.8807 182.543 82.058C182.72 82.226 182.935 82.3567 183.187 82.45C183.448 82.534 183.803 82.6273 184.251 82.73C184.82 82.8607 185.277 82.996 185.623 83.136C185.977 83.2667 186.276 83.4813 186.519 83.78C186.771 84.0787 186.897 84.48 186.897 84.984C186.897 85.6093 186.659 86.118 186.183 86.51C185.716 86.902 185.091 87.098 184.307 87.098C183.392 87.098 182.645 86.8787 182.067 86.44C181.488 86.0013 181.147 85.39 181.045 84.606H182.277C182.323 85.0727 182.524 85.4507 182.879 85.74C183.243 86.0293 183.719 86.174 184.307 86.174C184.745 86.174 185.086 86.062 185.329 85.838C185.581 85.614 185.707 85.32 185.707 84.956C185.707 84.6573 185.618 84.4193 185.441 84.242C185.263 84.0647 185.044 83.9293 184.783 83.836C184.521 83.7427 184.162 83.6447 183.705 83.542C183.135 83.4113 182.678 83.2807 182.333 83.15C181.997 83.0193 181.707 82.814 181.465 82.534C181.231 82.2447 181.115 81.8573 181.115 81.372C181.115 80.728 181.353 80.21 181.829 79.818C182.305 79.4167 182.953 79.216 183.775 79.216Z" fill="#151515" fill-opacity="0.54"/>
<path d="M112.93 106.552C116.746 103.828 118.654 101.662 118.654 100.054C118.654 99.07 118.228 98.578 117.376 98.578C116.896 98.578 116.542 98.746 116.314 99.082C116.098 99.418 115.978 99.94 115.954 100.648H112.948C113.02 99.1 113.488 97.936 114.352 97.156C115.216 96.376 116.308 95.986 117.628 95.986C119.008 95.986 120.046 96.334 120.742 97.03C121.45 97.726 121.804 98.632 121.804 99.748C121.804 100.984 121.33 102.196 120.382 103.384C119.434 104.56 118.3 105.556 116.98 106.372H122.002V108.856H112.93V106.552ZM124.476 107.236C123.672 106.072 123.27 104.494 123.27 102.502C123.27 100.522 123.672 98.956 124.476 97.804C125.28 96.64 126.564 96.058 128.328 96.058C130.08 96.058 131.358 96.64 132.162 97.804C132.978 98.956 133.386 100.522 133.386 102.502C133.386 104.494 132.978 106.072 132.162 107.236C131.358 108.4 130.08 108.982 128.328 108.982C126.564 108.982 125.28 108.4 124.476 107.236ZM129.912 105.148C130.188 104.524 130.326 103.642 130.326 102.502C130.326 101.362 130.188 100.492 129.912 99.892C129.648 99.28 129.12 98.974 128.328 98.974C127.524 98.974 126.984 99.28 126.708 99.892C126.432 100.504 126.294 101.374 126.294 102.502C126.294 103.642 126.432 104.524 126.708 105.148C126.984 105.76 127.524 106.066 128.328 106.066C129.12 106.066 129.648 105.76 129.912 105.148ZM136.06 107.236C135.256 106.072 134.854 104.494 134.854 102.502C134.854 100.522 135.256 98.956 136.06 97.804C136.864 96.64 138.148 96.058 139.912 96.058C141.664 96.058 142.942 96.64 143.746 97.804C144.562 98.956 144.97 100.522 144.97 102.502C144.97 104.494 144.562 106.072 143.746 107.236C142.942 108.4 141.664 108.982 139.912 108.982C138.148 108.982 136.864 108.4 136.06 107.236ZM141.496 105.148C141.772 104.524 141.91 103.642 141.91 102.502C141.91 101.362 141.772 100.492 141.496 99.892C141.232 99.28 140.704 98.974 139.912 98.974C139.108 98.974 138.568 99.28 138.292 99.892C138.016 100.504 137.878 101.374 137.878 102.502C137.878 103.642 138.016 104.524 138.292 105.148C138.568 105.76 139.108 106.066 139.912 106.066C140.704 106.066 141.232 105.76 141.496 105.148Z" fill="#151515"/>
<path d="M8.02855 139.148H11.0285V140H6.93655V131.54H8.02855V139.148ZM15.1277 133.328C15.7597 133.328 16.3237 133.464 16.8197 133.736C17.3237 134.008 17.7157 134.4 17.9957 134.912C18.2837 135.424 18.4277 136.024 18.4277 136.712C18.4277 137.4 18.2837 138 17.9957 138.512C17.7157 139.016 17.3237 139.404 16.8197 139.676C16.3237 139.948 15.7597 140.084 15.1277 140.084C14.4957 140.084 13.9277 139.948 13.4237 139.676C12.9277 139.404 12.5357 139.016 12.2477 138.512C11.9597 138 11.8157 137.4 11.8157 136.712C11.8157 136.024 11.9597 135.424 12.2477 134.912C12.5357 134.4 12.9277 134.008 13.4237 133.736C13.9277 133.464 14.4957 133.328 15.1277 133.328ZM15.1277 134.288C14.7357 134.288 14.3717 134.376 14.0357 134.552C13.7077 134.728 13.4397 135 13.2317 135.368C13.0317 135.728 12.9317 136.176 12.9317 136.712C12.9317 137.24 13.0317 137.688 13.2317 138.056C13.4397 138.416 13.7077 138.684 14.0357 138.86C14.3717 139.036 14.7357 139.124 15.1277 139.124C15.5197 139.124 15.8797 139.036 16.2077 138.86C16.5437 138.684 16.8117 138.416 17.0117 138.056C17.2197 137.688 17.3237 137.24 17.3237 136.712C17.3237 136.176 17.2197 135.728 17.0117 135.368C16.8117 135 16.5437 134.728 16.2077 134.552C15.8797 134.376 15.5197 134.288 15.1277 134.288ZM20.9426 134.744C21.1586 134.288 21.4746 133.936 21.8906 133.688C22.3066 133.432 22.8026 133.304 23.3786 133.304V134.492H23.0426C22.4266 134.492 21.9226 134.652 21.5306 134.972C21.1386 135.284 20.9426 135.804 20.9426 136.532V140H19.8506V133.412H20.9426V134.744ZM30.5161 136.34C30.5161 136.572 30.5001 136.772 30.4681 136.94H25.2001C25.2241 137.692 25.4361 138.256 25.8361 138.632C26.2441 139.008 26.7401 139.196 27.3241 139.196C27.8521 139.196 28.2921 139.064 28.6441 138.8C29.0041 138.528 29.2241 138.168 29.3041 137.72H30.4681C30.3881 138.176 30.2081 138.584 29.9281 138.944C29.6561 139.304 29.3001 139.584 28.8601 139.784C28.4201 139.984 27.9241 140.084 27.3721 140.084C26.7401 140.084 26.1801 139.948 25.6921 139.676C25.2041 139.404 24.8201 139.016 24.5401 138.512C24.2681 138 24.1321 137.4 24.1321 136.712C24.1321 136.024 24.2681 135.424 24.5401 134.912C24.8201 134.4 25.2041 134.008 25.6921 133.736C26.1801 133.464 26.7401 133.328 27.3721 133.328C28.0121 133.328 28.5681 133.464 29.0401 133.736C29.5201 134.008 29.8841 134.372 30.1321 134.828C30.3881 135.284 30.5161 135.788 30.5161 136.34ZM29.4121 136.412C29.4361 135.924 29.3561 135.516 29.1721 135.188C28.9881 134.86 28.7361 134.616 28.4161 134.456C28.0961 134.296 27.7481 134.216 27.3721 134.216C26.7721 134.216 26.2681 134.404 25.8601 134.78C25.4521 135.148 25.2321 135.692 25.2001 136.412H29.4121ZM40.0444 133.304C40.8124 133.304 41.4284 133.552 41.8924 134.048C42.3644 134.536 42.6004 135.244 42.6004 136.172V140H41.5084V136.268C41.5084 135.62 41.3484 135.124 41.0284 134.78C40.7164 134.436 40.2844 134.264 39.7324 134.264C39.1564 134.264 38.6924 134.456 38.3404 134.84C37.9964 135.216 37.8244 135.772 37.8244 136.508V140H36.7324V136.268C36.7324 135.62 36.5724 135.124 36.2524 134.78C35.9324 134.436 35.5004 134.264 34.9564 134.264C34.3724 134.264 33.9044 134.456 33.5524 134.84C33.2084 135.216 33.0364 135.772 33.0364 136.508V140H31.9444V133.412H33.0364V134.912C33.1964 134.392 33.4804 133.996 33.8884 133.724C34.3044 133.444 34.7804 133.304 35.3164 133.304C35.8764 133.304 36.3604 133.448 36.7684 133.736C37.1844 134.016 37.4804 134.432 37.6564 134.984C37.8404 134.448 38.1484 134.036 38.5804 133.748C39.0124 133.452 39.5004 133.304 40.0444 133.304ZM47.0688 131.48C47.0688 131.28 47.1368 131.12 47.2728 131C47.4088 130.872 47.5888 130.808 47.8128 130.808C48.0368 130.808 48.2168 130.872 48.3528 131C48.4888 131.12 48.5568 131.28 48.5568 131.48C48.5568 131.68 48.4888 131.844 48.3528 131.972C48.2168 132.092 48.0368 132.152 47.8128 132.152C47.5888 132.152 47.4088 132.092 47.2728 131.972C47.1368 131.844 47.0688 131.68 47.0688 131.48ZM48.3528 133.412V140H47.2608V133.412H48.3528ZM53.7444 133.328C54.3284 133.328 54.8484 133.464 55.3044 133.736C55.7604 134.008 56.1164 134.4 56.3724 134.912C56.6364 135.424 56.7684 136.024 56.7684 136.712C56.7684 137.4 56.6364 138 56.3724 138.512C56.1164 139.016 55.7604 139.404 55.3044 139.676C54.8484 139.948 54.3284 140.084 53.7444 140.084C53.1044 140.084 52.5604 139.924 52.1124 139.604C51.6724 139.276 51.3684 138.848 51.2004 138.32V143.12H50.1084V133.412H51.2004V135.092C51.3684 134.564 51.6724 134.14 52.1124 133.82C52.5604 133.492 53.1044 133.328 53.7444 133.328ZM53.4324 134.3C53.0084 134.3 52.6244 134.4 52.2804 134.6C51.9364 134.792 51.6684 135.072 51.4764 135.44C51.2844 135.808 51.1884 136.232 51.1884 136.712C51.1884 137.192 51.2844 137.616 51.4764 137.984C51.6684 138.344 51.9364 138.624 52.2804 138.824C52.6244 139.024 53.0084 139.124 53.4324 139.124C54.1124 139.124 54.6524 138.912 55.0524 138.488C55.4604 138.056 55.6644 137.464 55.6644 136.712C55.6644 135.96 55.4604 135.372 55.0524 134.948C54.6524 134.516 54.1124 134.3 53.4324 134.3ZM60.2584 133.328C61.0024 133.328 61.5984 133.524 62.0464 133.916C62.5024 134.3 62.7784 134.82 62.8744 135.476H61.8304C61.7824 135.084 61.6184 134.764 61.3384 134.516C61.0664 134.26 60.6984 134.132 60.2344 134.132C59.8424 134.132 59.5344 134.228 59.3104 134.42C59.0944 134.604 58.9864 134.856 58.9864 135.176C58.9864 135.416 59.0584 135.612 59.2024 135.764C59.3544 135.908 59.5384 136.02 59.7544 136.1C59.9784 136.172 60.2824 136.252 60.6664 136.34C61.1544 136.452 61.5464 136.568 61.8424 136.688C62.1464 136.8 62.4024 136.984 62.6104 137.24C62.8264 137.496 62.9344 137.84 62.9344 138.272C62.9344 138.808 62.7304 139.244 62.3224 139.58C61.9224 139.916 61.3864 140.084 60.7144 140.084C59.9304 140.084 59.2904 139.896 58.7944 139.52C58.2984 139.144 58.0064 138.62 57.9184 137.948H58.9744C59.0144 138.348 59.1864 138.672 59.4904 138.92C59.8024 139.168 60.2104 139.292 60.7144 139.292C61.0904 139.292 61.3824 139.196 61.5904 139.004C61.8064 138.812 61.9144 138.56 61.9144 138.248C61.9144 137.992 61.8384 137.788 61.6864 137.636C61.5344 137.484 61.3464 137.368 61.1224 137.288C60.8984 137.208 60.5904 137.124 60.1984 137.036C59.7104 136.924 59.3184 136.812 59.0224 136.7C58.7344 136.588 58.4864 136.412 58.2784 136.172C58.0784 135.924 57.9784 135.592 57.9784 135.176C57.9784 134.624 58.1824 134.18 58.5904 133.844C58.9984 133.5 59.5544 133.328 60.2584 133.328ZM70.2496 133.412V140H69.1576V138.452C68.9896 138.988 68.6896 139.4 68.2576 139.688C67.8336 139.968 67.3376 140.108 66.7696 140.108C66.0096 140.108 65.3936 139.864 64.9216 139.376C64.4496 138.88 64.2136 138.172 64.2136 137.252V133.412H65.3056V137.144C65.3056 137.8 65.4736 138.308 65.8096 138.668C66.1456 139.02 66.6016 139.196 67.1776 139.196C67.7776 139.196 68.2576 139.004 68.6176 138.62C68.9776 138.228 69.1576 137.66 69.1576 136.916V133.412H70.2496ZM80.099 133.304C80.867 133.304 81.483 133.552 81.947 134.048C82.419 134.536 82.655 135.244 82.655 136.172V140H81.563V136.268C81.563 135.62 81.403 135.124 81.083 134.78C80.771 134.436 80.339 134.264 79.787 134.264C79.211 134.264 78.747 134.456 78.395 134.84C78.051 135.216 77.879 135.772 77.879 136.508V140H76.787V136.268C76.787 135.62 76.627 135.124 76.307 134.78C75.987 134.436 75.555 134.264 75.011 134.264C74.427 134.264 73.959 134.456 73.607 134.84C73.263 135.216 73.091 135.772 73.091 136.508V140H71.999V133.412H73.091V134.912C73.251 134.392 73.535 133.996 73.943 133.724C74.359 133.444 74.835 133.304 75.371 133.304C75.931 133.304 76.415 133.448 76.823 133.736C77.239 134.016 77.535 134.432 77.711 134.984C77.895 134.448 78.203 134.036 78.635 133.748C79.067 133.452 79.555 133.304 80.099 133.304ZM90.0155 133.328C90.6555 133.328 91.1955 133.488 91.6355 133.808C92.0835 134.128 92.3955 134.556 92.5715 135.092V131.12H93.6635V140H92.5715V138.32C92.3955 138.856 92.0835 139.284 91.6355 139.604C91.1955 139.924 90.6555 140.084 90.0155 140.084C89.4315 140.084 88.9115 139.948 88.4555 139.676C87.9995 139.404 87.6395 139.016 87.3755 138.512C87.1195 138 86.9915 137.4 86.9915 136.712C86.9915 136.024 87.1195 135.424 87.3755 134.912C87.6395 134.4 87.9995 134.008 88.4555 133.736C88.9115 133.464 89.4315 133.328 90.0155 133.328ZM90.3275 134.3C89.6555 134.3 89.1155 134.516 88.7075 134.948C88.3075 135.372 88.1075 135.96 88.1075 136.712C88.1075 137.464 88.3075 138.056 88.7075 138.488C89.1155 138.912 89.6555 139.124 90.3275 139.124C90.7595 139.124 91.1435 139.024 91.4795 138.824C91.8235 138.624 92.0915 138.344 92.2835 137.984C92.4755 137.616 92.5715 137.192 92.5715 136.712C92.5715 136.232 92.4755 135.808 92.2835 135.44C92.0915 135.072 91.8235 134.792 91.4795 134.6C91.1435 134.4 90.7595 134.3 90.3275 134.3ZM98.3894 133.328C99.0214 133.328 99.5854 133.464 100.081 133.736C100.585 134.008 100.977 134.4 101.257 134.912C101.545 135.424 101.689 136.024 101.689 136.712C101.689 137.4 101.545 138 101.257 138.512C100.977 139.016 100.585 139.404 100.081 139.676C99.5854 139.948 99.0214 140.084 98.3894 140.084C97.7574 140.084 97.1894 139.948 96.6854 139.676C96.1894 139.404 95.7974 139.016 95.5094 138.512C95.2214 138 95.0774 137.4 95.0774 136.712C95.0774 136.024 95.2214 135.424 95.5094 134.912C95.7974 134.4 96.1894 134.008 96.6854 133.736C97.1894 133.464 97.7574 133.328 98.3894 133.328ZM98.3894 134.288C97.9974 134.288 97.6334 134.376 97.2974 134.552C96.9694 134.728 96.7014 135 96.4934 135.368C96.2934 135.728 96.1934 136.176 96.1934 136.712C96.1934 137.24 96.2934 137.688 96.4934 138.056C96.7014 138.416 96.9694 138.684 97.2974 138.86C97.6334 139.036 97.9974 139.124 98.3894 139.124C98.7814 139.124 99.1414 139.036 99.4694 138.86C99.8054 138.684 100.073 138.416 100.273 138.056C100.481 137.688 100.585 137.24 100.585 136.712C100.585 136.176 100.481 135.728 100.273 135.368C100.073 135 99.8054 134.728 99.4694 134.552C99.1414 134.376 98.7814 134.288 98.3894 134.288ZM104.204 131.12V140H103.112V131.12H104.204ZM108.948 133.328C109.58 133.328 110.144 133.464 110.64 133.736C111.144 134.008 111.536 134.4 111.816 134.912C112.104 135.424 112.248 136.024 112.248 136.712C112.248 137.4 112.104 138 111.816 138.512C111.536 139.016 111.144 139.404 110.64 139.676C110.144 139.948 109.58 140.084 108.948 140.084C108.316 140.084 107.748 139.948 107.244 139.676C106.748 139.404 106.356 139.016 106.068 138.512C105.78 138 105.636 137.4 105.636 136.712C105.636 136.024 105.78 135.424 106.068 134.912C106.356 134.4 106.748 134.008 107.244 133.736C107.748 133.464 108.316 133.328 108.948 133.328ZM108.948 134.288C108.556 134.288 108.192 134.376 107.856 134.552C107.528 134.728 107.26 135 107.052 135.368C106.852 135.728 106.752 136.176 106.752 136.712C106.752 137.24 106.852 137.688 107.052 138.056C107.26 138.416 107.528 138.684 107.856 138.86C108.192 139.036 108.556 139.124 108.948 139.124C109.34 139.124 109.7 139.036 110.028 138.86C110.364 138.684 110.632 138.416 110.832 138.056C111.04 137.688 111.144 137.24 111.144 136.712C111.144 136.176 111.04 135.728 110.832 135.368C110.632 135 110.364 134.728 110.028 134.552C109.7 134.376 109.34 134.288 108.948 134.288ZM114.763 134.744C114.979 134.288 115.295 133.936 115.711 133.688C116.127 133.432 116.623 133.304 117.199 133.304V134.492H116.863C116.247 134.492 115.743 134.652 115.351 134.972C114.959 135.284 114.763 135.804 114.763 136.532V140H113.671V133.412H114.763V134.744ZM123.305 133.328C124.049 133.328 124.645 133.524 125.093 133.916C125.549 134.3 125.825 134.82 125.921 135.476H124.877C124.829 135.084 124.665 134.764 124.385 134.516C124.113 134.26 123.745 134.132 123.281 134.132C122.889 134.132 122.581 134.228 122.357 134.42C122.141 134.604 122.033 134.856 122.033 135.176C122.033 135.416 122.105 135.612 122.249 135.764C122.401 135.908 122.585 136.02 122.801 136.1C123.025 136.172 123.329 136.252 123.713 136.34C124.201 136.452 124.593 136.568 124.889 136.688C125.193 136.8 125.449 136.984 125.657 137.24C125.873 137.496 125.981 137.84 125.981 138.272C125.981 138.808 125.777 139.244 125.369 139.58C124.969 139.916 124.433 140.084 123.761 140.084C122.977 140.084 122.337 139.896 121.841 139.52C121.345 139.144 121.053 138.62 120.965 137.948H122.021C122.061 138.348 122.233 138.672 122.537 138.92C122.849 139.168 123.257 139.292 123.761 139.292C124.137 139.292 124.429 139.196 124.637 139.004C124.853 138.812 124.961 138.56 124.961 138.248C124.961 137.992 124.885 137.788 124.733 137.636C124.581 137.484 124.393 137.368 124.169 137.288C123.945 137.208 123.637 137.124 123.245 137.036C122.757 136.924 122.365 136.812 122.069 136.7C121.781 136.588 121.533 136.412 121.325 136.172C121.125 135.924 121.025 135.592 121.025 135.176C121.025 134.624 121.229 134.18 121.637 133.844C122.045 133.5 122.601 133.328 123.305 133.328ZM127.248 131.48C127.248 131.28 127.316 131.12 127.452 131C127.588 130.872 127.768 130.808 127.992 130.808C128.216 130.808 128.396 130.872 128.532 131C128.668 131.12 128.736 131.28 128.736 131.48C128.736 131.68 128.668 131.844 128.532 131.972C128.396 132.092 128.216 132.152 127.992 132.152C127.768 132.152 127.588 132.092 127.452 131.972C127.316 131.844 127.248 131.68 127.248 131.48ZM128.532 133.412V140H127.44V133.412H128.532ZM133.432 139.04V140H132.616C131.944 140 131.44 139.84 131.104 139.52C130.776 139.2 130.612 138.664 130.612 137.912V134.36H129.628V133.412H130.612V131.768H131.716V133.412H133.42V134.36H131.716V137.936C131.716 138.36 131.792 138.652 131.944 138.812C132.104 138.964 132.376 139.04 132.76 139.04H133.432ZM140.43 133.328C141.07 133.328 141.61 133.488 142.05 133.808C142.498 134.128 142.81 134.556 142.986 135.092V133.412H144.078V140H142.986V138.32C142.81 138.856 142.498 139.284 142.05 139.604C141.61 139.924 141.07 140.084 140.43 140.084C139.846 140.084 139.326 139.948 138.87 139.676C138.414 139.404 138.054 139.016 137.79 138.512C137.534 138 137.406 137.4 137.406 136.712C137.406 136.024 137.534 135.424 137.79 134.912C138.054 134.4 138.414 134.008 138.87 133.736C139.326 133.464 139.846 133.328 140.43 133.328ZM140.742 134.3C140.07 134.3 139.53 134.516 139.122 134.948C138.722 135.372 138.522 135.96 138.522 136.712C138.522 137.464 138.722 138.056 139.122 138.488C139.53 138.912 140.07 139.124 140.742 139.124C141.174 139.124 141.558 139.024 141.894 138.824C142.238 138.624 142.506 138.344 142.698 137.984C142.89 137.616 142.986 137.192 142.986 136.712C142.986 136.232 142.89 135.808 142.698 135.44C142.506 135.072 142.238 134.792 141.894 134.6C141.558 134.4 141.174 134.3 140.742 134.3ZM153.915 133.304C154.683 133.304 155.299 133.552 155.763 134.048C156.235 134.536 156.471 135.244 156.471 136.172V140H155.379V136.268C155.379 135.62 155.219 135.124 154.899 134.78C154.587 134.436 154.155 134.264 153.603 134.264C153.027 134.264 152.563 134.456 152.211 134.84C151.867 135.216 151.695 135.772 151.695 136.508V140H150.603V136.268C150.603 135.62 150.443 135.124 150.123 134.78C149.803 134.436 149.371 134.264 148.827 134.264C148.243 134.264 147.775 134.456 147.423 134.84C147.079 135.216 146.907 135.772 146.907 136.508V140H145.815V133.412H146.907V134.912C147.067 134.392 147.351 133.996 147.759 133.724C148.175 133.444 148.651 133.304 149.187 133.304C149.747 133.304 150.231 133.448 150.639 133.736C151.055 134.016 151.351 134.432 151.527 134.984C151.711 134.448 152.019 134.036 152.451 133.748C152.883 133.452 153.371 133.304 153.915 133.304ZM164.227 136.34C164.227 136.572 164.211 136.772 164.179 136.94H158.911C158.935 137.692 159.147 138.256 159.547 138.632C159.955 139.008 160.451 139.196 161.035 139.196C161.563 139.196 162.003 139.064 162.355 138.8C162.715 138.528 162.935 138.168 163.015 137.72H164.179C164.099 138.176 163.919 138.584 163.639 138.944C163.367 139.304 163.011 139.584 162.571 139.784C162.131 139.984 161.635 140.084 161.083 140.084C160.451 140.084 159.891 139.948 159.403 139.676C158.915 139.404 158.531 139.016 158.251 138.512C157.979 138 157.843 137.4 157.843 136.712C157.843 136.024 157.979 135.424 158.251 134.912C158.531 134.4 158.915 134.008 159.403 133.736C159.891 133.464 160.451 133.328 161.083 133.328C161.723 133.328 162.279 133.464 162.751 133.736C163.231 134.008 163.595 134.372 163.843 134.828C164.099 135.284 164.227 135.788 164.227 136.34ZM163.123 136.412C163.147 135.924 163.067 135.516 162.883 135.188C162.699 134.86 162.447 134.616 162.127 134.456C161.807 134.296 161.459 134.216 161.083 134.216C160.483 134.216 159.979 134.404 159.571 134.78C159.163 135.148 158.943 135.692 158.911 136.412H163.123ZM168.799 139.04V140H167.983C167.311 140 166.807 139.84 166.471 139.52C166.143 139.2 165.979 138.664 165.979 137.912V134.36H164.995V133.412H165.979V131.768H167.083V133.412H168.787V134.36H167.083V137.936C167.083 138.36 167.159 138.652 167.311 138.812C167.471 138.964 167.743 139.04 168.127 139.04H168.799ZM176.013 133.328C176.853 133.328 177.549 133.552 178.101 134C178.653 134.448 178.993 135.048 179.121 135.8H177.969C177.889 135.328 177.669 134.96 177.309 134.696C176.957 134.424 176.517 134.288 175.989 134.288C175.605 134.288 175.253 134.376 174.933 134.552C174.621 134.728 174.369 135 174.177 135.368C173.985 135.728 173.889 136.176 173.889 136.712C173.889 137.248 173.985 137.7 174.177 138.068C174.369 138.428 174.621 138.696 174.933 138.872C175.253 139.048 175.605 139.136 175.989 139.136C176.517 139.136 176.957 139 177.309 138.728C177.669 138.456 177.889 138.084 177.969 137.612H179.121C178.993 138.372 178.653 138.976 178.101 139.424C177.549 139.864 176.853 140.084 176.013 140.084C175.381 140.084 174.821 139.948 174.333 139.676C173.845 139.404 173.461 139.016 173.181 138.512C172.909 138 172.773 137.4 172.773 136.712C172.773 136.024 172.909 135.424 173.181 134.912C173.461 134.4 173.845 134.008 174.333 133.736C174.821 133.464 175.381 133.328 176.013 133.328ZM183.538 133.328C184.17 133.328 184.734 133.464 185.23 133.736C185.734 134.008 186.126 134.4 186.406 134.912C186.694 135.424 186.838 136.024 186.838 136.712C186.838 137.4 186.694 138 186.406 138.512C186.126 139.016 185.734 139.404 185.23 139.676C184.734 139.948 184.17 140.084 183.538 140.084C182.906 140.084 182.338 139.948 181.834 139.676C181.338 139.404 180.946 139.016 180.658 138.512C180.37 138 180.226 137.4 180.226 136.712C180.226 136.024 180.37 135.424 180.658 134.912C180.946 134.4 181.338 134.008 181.834 133.736C182.338 133.464 182.906 133.328 183.538 133.328ZM183.538 134.288C183.146 134.288 182.782 134.376 182.446 134.552C182.118 134.728 181.85 135 181.642 135.368C181.442 135.728 181.342 136.176 181.342 136.712C181.342 137.24 181.442 137.688 181.642 138.056C181.85 138.416 182.118 138.684 182.446 138.86C182.782 139.036 183.146 139.124 183.538 139.124C183.93 139.124 184.29 139.036 184.618 138.86C184.954 138.684 185.222 138.416 185.422 138.056C185.63 137.688 185.734 137.24 185.734 136.712C185.734 136.176 185.63 135.728 185.422 135.368C185.222 135 184.954 134.728 184.618 134.552C184.29 134.376 183.93 134.288 183.538 134.288ZM191.729 133.304C192.497 133.304 193.117 133.552 193.589 134.048C194.061 134.536 194.297 135.244 194.297 136.172V140H193.205V136.268C193.205 135.612 193.037 135.108 192.701 134.756C192.365 134.404 191.909 134.228 191.333 134.228C190.733 134.228 190.253 134.424 189.893 134.816C189.533 135.2 189.353 135.764 189.353 136.508V140H188.261V133.412H189.353V134.972C189.521 134.436 189.817 134.024 190.241 133.736C190.673 133.448 191.169 133.304 191.729 133.304ZM198.036 133.328C198.78 133.328 199.376 133.524 199.824 133.916C200.28 134.3 200.556 134.82 200.652 135.476H199.608C199.56 135.084 199.396 134.764 199.116 134.516C198.844 134.26 198.476 134.132 198.012 134.132C197.62 134.132 197.312 134.228 197.088 134.42C196.872 134.604 196.764 134.856 196.764 135.176C196.764 135.416 196.836 135.612 196.98 135.764C197.132 135.908 197.316 136.02 197.532 136.1C197.756 136.172 198.06 136.252 198.444 136.34C198.932 136.452 199.324 136.568 199.62 136.688C199.924 136.8 200.18 136.984 200.388 137.24C200.604 137.496 200.712 137.84 200.712 138.272C200.712 138.808 200.508 139.244 200.1 139.58C199.7 139.916 199.164 140.084 198.492 140.084C197.708 140.084 197.068 139.896 196.572 139.52C196.076 139.144 195.784 138.62 195.696 137.948H196.752C196.792 138.348 196.964 138.672 197.268 138.92C197.58 139.168 197.988 139.292 198.492 139.292C198.868 139.292 199.16 139.196 199.368 139.004C199.584 138.812 199.692 138.56 199.692 138.248C199.692 137.992 199.616 137.788 199.464 137.636C199.312 137.484 199.124 137.368 198.9 137.288C198.676 137.208 198.368 137.124 197.976 137.036C197.488 136.924 197.096 136.812 196.8 136.7C196.512 136.588 196.264 136.412 196.056 136.172C195.856 135.924 195.756 135.592 195.756 135.176C195.756 134.624 195.96 134.18 196.368 133.844C196.776 133.5 197.332 133.328 198.036 133.328ZM208.231 136.34C208.231 136.572 208.215 136.772 208.183 136.94H202.915C202.939 137.692 203.151 138.256 203.551 138.632C203.959 139.008 204.455 139.196 205.039 139.196C205.567 139.196 206.007 139.064 206.359 138.8C206.719 138.528 206.939 138.168 207.019 137.72H208.183C208.103 138.176 207.923 138.584 207.643 138.944C207.371 139.304 207.015 139.584 206.575 139.784C206.135 139.984 205.639 140.084 205.087 140.084C204.455 140.084 203.895 139.948 203.407 139.676C202.919 139.404 202.535 139.016 202.255 138.512C201.983 138 201.847 137.4 201.847 136.712C201.847 136.024 201.983 135.424 202.255 134.912C202.535 134.4 202.919 134.008 203.407 133.736C203.895 133.464 204.455 133.328 205.087 133.328C205.727 133.328 206.283 133.464 206.755 133.736C207.235 134.008 207.599 134.372 207.847 134.828C208.103 135.284 208.231 135.788 208.231 136.34ZM207.127 136.412C207.151 135.924 207.071 135.516 206.887 135.188C206.703 134.86 206.451 134.616 206.131 134.456C205.811 134.296 205.463 134.216 205.087 134.216C204.487 134.216 203.983 134.404 203.575 134.78C203.167 135.148 202.947 135.692 202.915 136.412H207.127ZM212.575 133.328C213.415 133.328 214.111 133.552 214.663 134C215.215 134.448 215.555 135.048 215.683 135.8H214.531C214.451 135.328 214.231 134.96 213.871 134.696C213.519 134.424 213.079 134.288 212.551 134.288C212.167 134.288 211.815 134.376 211.495 134.552C211.183 134.728 210.931 135 210.739 135.368C210.547 135.728 210.451 136.176 210.451 136.712C210.451 137.248 210.547 137.7 210.739 138.068C210.931 138.428 211.183 138.696 211.495 138.872C211.815 139.048 212.167 139.136 212.551 139.136C213.079 139.136 213.519 139 213.871 138.728C214.231 138.456 214.451 138.084 214.531 137.612H215.683C215.555 138.372 215.215 138.976 214.663 139.424C214.111 139.864 213.415 140.084 212.575 140.084C211.943 140.084 211.383 139.948 210.895 139.676C210.407 139.404 210.023 139.016 209.743 138.512C209.471 138 209.335 137.4 209.335 136.712C209.335 136.024 209.471 135.424 209.743 134.912C210.023 134.4 210.407 134.008 210.895 133.736C211.383 133.464 211.943 133.328 212.575 133.328ZM220.256 139.04V140H219.44C218.768 140 218.264 139.84 217.928 139.52C217.6 139.2 217.436 138.664 217.436 137.912V134.36H216.452V133.412H217.436V131.768H218.54V133.412H220.244V134.36H218.54V137.936C218.54 138.36 218.616 138.652 218.768 138.812C218.928 138.964 219.2 139.04 219.584 139.04H220.256ZM227.649 136.34C227.649 136.572 227.633 136.772 227.601 136.94H222.333C222.357 137.692 222.569 138.256 222.969 138.632C223.377 139.008 223.873 139.196 224.457 139.196C224.985 139.196 225.425 139.064 225.777 138.8C226.137 138.528 226.357 138.168 226.437 137.72H227.601C227.521 138.176 227.341 138.584 227.061 138.944C226.789 139.304 226.433 139.584 225.993 139.784C225.553 139.984 225.057 140.084 224.505 140.084C223.873 140.084 223.313 139.948 222.825 139.676C222.337 139.404 221.953 139.016 221.673 138.512C221.401 138 221.265 137.4 221.265 136.712C221.265 136.024 221.401 135.424 221.673 134.912C221.953 134.4 222.337 134.008 222.825 133.736C223.313 133.464 223.873 133.328 224.505 133.328C225.145 133.328 225.701 133.464 226.173 133.736C226.653 134.008 227.017 134.372 227.265 134.828C227.521 135.284 227.649 135.788 227.649 136.34ZM226.545 136.412C226.569 135.924 226.489 135.516 226.305 135.188C226.121 134.86 225.869 134.616 225.549 134.456C225.229 134.296 224.881 134.216 224.505 134.216C223.905 134.216 223.401 134.404 222.993 134.78C222.585 135.148 222.365 135.692 222.333 136.412H226.545ZM232.221 139.04V140H231.405C230.733 140 230.229 139.84 229.893 139.52C229.565 139.2 229.401 138.664 229.401 137.912V134.36H228.417V133.412H229.401V131.768H230.505V133.412H232.209V134.36H230.505V137.936C230.505 138.36 230.581 138.652 230.733 138.812C230.893 138.964 231.165 139.04 231.549 139.04H232.221ZM239.41 133.412V140H238.318V138.452C238.15 138.988 237.85 139.4 237.418 139.688C236.994 139.968 236.498 140.108 235.93 140.108C235.17 140.108 234.554 139.864 234.082 139.376C233.61 138.88 233.374 138.172 233.374 137.252V133.412H234.466V137.144C234.466 137.8 234.634 138.308 234.97 138.668C235.306 139.02 235.762 139.196 236.338 139.196C236.938 139.196 237.418 139.004 237.778 138.62C238.138 138.228 238.318 137.66 238.318 136.916V133.412H239.41ZM242.251 134.744C242.467 134.288 242.783 133.936 243.199 133.688C243.615 133.432 244.111 133.304 244.687 133.304V134.492H244.351C243.735 134.492 243.231 134.652 242.839 134.972C242.447 135.284 242.251 135.804 242.251 136.532V140H241.159V133.412H242.251V134.744ZM246.569 138.716V140H245.249V138.716H246.569ZM49.2082 150.428V153.32H52.4242V154.16H49.2082V157.112H52.7842V158H48.1162V149.54H52.7842V150.428H49.2082ZM55.2785 149.12V158H54.1865V149.12H55.2785ZM63.0942 154.34C63.0942 154.572 63.0782 154.772 63.0462 154.94H57.7782C57.8022 155.692 58.0142 156.256 58.4142 156.632C58.8222 157.008 59.3182 157.196 59.9022 157.196C60.4302 157.196 60.8702 157.064 61.2222 156.8C61.5822 156.528 61.8022 156.168 61.8822 155.72H63.0462C62.9662 156.176 62.7862 156.584 62.5062 156.944C62.2342 157.304 61.8782 157.584 61.4382 157.784C60.9982 157.984 60.5022 158.084 59.9502 158.084C59.3182 158.084 58.7582 157.948 58.2702 157.676C57.7822 157.404 57.3982 157.016 57.1182 156.512C56.8462 156 56.7102 155.4 56.7102 154.712C56.7102 154.024 56.8462 153.424 57.1182 152.912C57.3982 152.4 57.7822 152.008 58.2702 151.736C58.7582 151.464 59.3182 151.328 59.9502 151.328C60.5902 151.328 61.1462 151.464 61.6182 151.736C62.0982 152.008 62.4622 152.372 62.7102 152.828C62.9662 153.284 63.0942 153.788 63.0942 154.34ZM61.9902 154.412C62.0142 153.924 61.9342 153.516 61.7502 153.188C61.5662 152.86 61.3142 152.616 60.9942 152.456C60.6742 152.296 60.3262 152.216 59.9502 152.216C59.3502 152.216 58.8462 152.404 58.4382 152.78C58.0302 153.148 57.8102 153.692 57.7782 154.412H61.9902ZM64.3305 149.48C64.3305 149.28 64.3985 149.12 64.5345 149C64.6705 148.872 64.8505 148.808 65.0745 148.808C65.2985 148.808 65.4785 148.872 65.6145 149C65.7505 149.12 65.8185 149.28 65.8185 149.48C65.8185 149.68 65.7505 149.844 65.6145 149.972C65.4785 150.092 65.2985 150.152 65.0745 150.152C64.8505 150.152 64.6705 150.092 64.5345 149.972C64.3985 149.844 64.3305 149.68 64.3305 149.48ZM65.6145 151.412V158H64.5225V151.412H65.6145ZM70.2861 149.852C69.7021 149.844 69.2941 149.944 69.0621 150.152C68.8381 150.36 68.7261 150.72 68.7261 151.232V151.412H70.2861V152.372H68.7261V158H67.6341V152.372H66.6861V151.412H67.6341V151.148C67.6341 149.572 68.5181 148.82 70.2861 148.892V149.852ZM77.5317 154.34C77.5317 154.572 77.5157 154.772 77.4837 154.94H72.2157C72.2397 155.692 72.4517 156.256 72.8517 156.632C73.2597 157.008 73.7557 157.196 74.3397 157.196C74.8677 157.196 75.3077 157.064 75.6597 156.8C76.0197 156.528 76.2397 156.168 76.3197 155.72H77.4837C77.4037 156.176 77.2237 156.584 76.9437 156.944C76.6717 157.304 76.3157 157.584 75.8757 157.784C75.4357 157.984 74.9397 158.084 74.3877 158.084C73.7557 158.084 73.1957 157.948 72.7077 157.676C72.2197 157.404 71.8357 157.016 71.5557 156.512C71.2837 156 71.1477 155.4 71.1477 154.712C71.1477 154.024 71.2837 153.424 71.5557 152.912C71.8357 152.4 72.2197 152.008 72.7077 151.736C73.1957 151.464 73.7557 151.328 74.3877 151.328C75.0277 151.328 75.5837 151.464 76.0557 151.736C76.5357 152.008 76.8997 152.372 77.1477 152.828C77.4037 153.284 77.5317 153.788 77.5317 154.34ZM76.4277 154.412C76.4517 153.924 76.3717 153.516 76.1877 153.188C76.0037 152.86 75.7517 152.616 75.4317 152.456C75.1117 152.296 74.7637 152.216 74.3877 152.216C73.7877 152.216 73.2837 152.404 72.8757 152.78C72.4677 153.148 72.2477 153.692 72.2157 154.412H76.4277ZM82.428 151.304C83.196 151.304 83.816 151.552 84.288 152.048C84.76 152.536 84.996 153.244 84.996 154.172V158H83.904V154.268C83.904 153.612 83.736 153.108 83.4 152.756C83.064 152.404 82.608 152.228 82.032 152.228C81.432 152.228 80.952 152.424 80.592 152.816C80.232 153.2 80.052 153.764 80.052 154.508V158H78.96V151.412H80.052V152.972C80.22 152.436 80.516 152.024 80.94 151.736C81.372 151.448 81.868 151.304 82.428 151.304ZM89.3709 151.328C90.0109 151.328 90.5509 151.488 90.9909 151.808C91.4389 152.128 91.7509 152.556 91.9269 153.092V149.12H93.0189V158H91.9269V156.32C91.7509 156.856 91.4389 157.284 90.9909 157.604C90.5509 157.924 90.0109 158.084 89.3709 158.084C88.7869 158.084 88.2669 157.948 87.8109 157.676C87.3549 157.404 86.9949 157.016 86.7309 156.512C86.4749 156 86.3469 155.4 86.3469 154.712C86.3469 154.024 86.4749 153.424 86.7309 152.912C86.9949 152.4 87.3549 152.008 87.8109 151.736C88.2669 151.464 88.7869 151.328 89.3709 151.328ZM89.6829 152.3C89.0109 152.3 88.4709 152.516 88.0629 152.948C87.6629 153.372 87.4629 153.96 87.4629 154.712C87.4629 155.464 87.6629 156.056 88.0629 156.488C88.4709 156.912 89.0109 157.124 89.6829 157.124C90.1149 157.124 90.4989 157.024 90.8349 156.824C91.1789 156.624 91.4469 156.344 91.6389 155.984C91.8309 155.616 91.9269 155.192 91.9269 154.712C91.9269 154.232 91.8309 153.808 91.6389 153.44C91.4469 153.072 91.1789 152.792 90.8349 152.6C90.4989 152.4 90.1149 152.3 89.6829 152.3ZM101.358 151.328C101.942 151.328 102.462 151.464 102.918 151.736C103.374 152.008 103.73 152.4 103.986 152.912C104.25 153.424 104.382 154.024 104.382 154.712C104.382 155.4 104.25 156 103.986 156.512C103.73 157.016 103.374 157.404 102.918 157.676C102.462 157.948 101.942 158.084 101.358 158.084C100.718 158.084 100.174 157.924 99.7257 157.604C99.2857 157.276 98.9817 156.848 98.8137 156.32V161.12H97.7217V151.412H98.8137V153.092C98.9817 152.564 99.2857 152.14 99.7257 151.82C100.174 151.492 100.718 151.328 101.358 151.328ZM101.046 152.3C100.622 152.3 100.238 152.4 99.8937 152.6C99.5497 152.792 99.2817 153.072 99.0897 153.44C98.8977 153.808 98.8017 154.232 98.8017 154.712C98.8017 155.192 98.8977 155.616 99.0897 155.984C99.2817 156.344 99.5497 156.624 99.8937 156.824C100.238 157.024 100.622 157.124 101.046 157.124C101.726 157.124 102.266 156.912 102.666 156.488C103.074 156.056 103.278 155.464 103.278 154.712C103.278 153.96 103.074 153.372 102.666 152.948C102.266 152.516 101.726 152.3 101.046 152.3ZM106.9 152.744C107.116 152.288 107.432 151.936 107.848 151.688C108.264 151.432 108.76 151.304 109.336 151.304V152.492H109C108.384 152.492 107.88 152.652 107.488 152.972C107.096 153.284 106.9 153.804 106.9 154.532V158H105.808V151.412H106.9V152.744ZM113.401 151.328C114.033 151.328 114.597 151.464 115.093 151.736C115.597 152.008 115.989 152.4 116.269 152.912C116.557 153.424 116.701 154.024 116.701 154.712C116.701 155.4 116.557 156 116.269 156.512C115.989 157.016 115.597 157.404 115.093 157.676C114.597 157.948 114.033 158.084 113.401 158.084C112.769 158.084 112.201 157.948 111.697 157.676C111.201 157.404 110.809 157.016 110.521 156.512C110.233 156 110.089 155.4 110.089 154.712C110.089 154.024 110.233 153.424 110.521 152.912C110.809 152.4 111.201 152.008 111.697 151.736C112.201 151.464 112.769 151.328 113.401 151.328ZM113.401 152.288C113.009 152.288 112.645 152.376 112.309 152.552C111.981 152.728 111.713 153 111.505 153.368C111.305 153.728 111.205 154.176 111.205 154.712C111.205 155.24 111.305 155.688 111.505 156.056C111.713 156.416 111.981 156.684 112.309 156.86C112.645 157.036 113.009 157.124 113.401 157.124C113.793 157.124 114.153 157.036 114.481 156.86C114.817 156.684 115.085 156.416 115.285 156.056C115.493 155.688 115.597 155.24 115.597 154.712C115.597 154.176 115.493 153.728 115.285 153.368C115.085 153 114.817 152.728 114.481 152.552C114.153 152.376 113.793 152.288 113.401 152.288ZM117.932 149.48C117.932 149.28 118 149.12 118.136 149C118.272 148.872 118.452 148.808 118.676 148.808C118.9 148.808 119.08 148.872 119.216 149C119.352 149.12 119.42 149.28 119.42 149.48C119.42 149.68 119.352 149.844 119.216 149.972C119.08 150.092 118.9 150.152 118.676 150.152C118.452 150.152 118.272 150.092 118.136 149.972C118 149.844 117.932 149.68 117.932 149.48ZM119.216 151.412V158H118.124V151.412H119.216ZM124.44 151.304C125.208 151.304 125.828 151.552 126.3 152.048C126.772 152.536 127.008 153.244 127.008 154.172V158H125.916V154.268C125.916 153.612 125.748 153.108 125.412 152.756C125.076 152.404 124.62 152.228 124.044 152.228C123.444 152.228 122.964 152.424 122.604 152.816C122.244 153.2 122.064 153.764 122.064 154.508V158H120.972V151.412H122.064V152.972C122.232 152.436 122.528 152.024 122.952 151.736C123.384 151.448 123.88 151.304 124.44 151.304ZM139.747 151.304C140.515 151.304 141.131 151.552 141.595 152.048C142.067 152.536 142.303 153.244 142.303 154.172V158H141.211V154.268C141.211 153.62 141.051 153.124 140.731 152.78C140.419 152.436 139.987 152.264 139.435 152.264C138.859 152.264 138.395 152.456 138.043 152.84C137.699 153.216 137.527 153.772 137.527 154.508V158H136.435V154.268C136.435 153.62 136.275 153.124 135.955 152.78C135.635 152.436 135.203 152.264 134.659 152.264C134.075 152.264 133.607 152.456 133.255 152.84C132.911 153.216 132.739 153.772 132.739 154.508V158H131.647V151.412H132.739V152.912C132.899 152.392 133.183 151.996 133.591 151.724C134.007 151.444 134.483 151.304 135.019 151.304C135.579 151.304 136.063 151.448 136.471 151.736C136.887 152.016 137.183 152.432 137.359 152.984C137.543 152.448 137.851 152.036 138.283 151.748C138.715 151.452 139.203 151.304 139.747 151.304ZM146.699 151.328C147.339 151.328 147.879 151.488 148.319 151.808C148.767 152.128 149.079 152.556 149.255 153.092V151.412H150.347V158H149.255V156.32C149.079 156.856 148.767 157.284 148.319 157.604C147.879 157.924 147.339 158.084 146.699 158.084C146.115 158.084 145.595 157.948 145.139 157.676C144.683 157.404 144.323 157.016 144.059 156.512C143.803 156 143.675 155.4 143.675 154.712C143.675 154.024 143.803 153.424 144.059 152.912C144.323 152.4 144.683 152.008 145.139 151.736C145.595 151.464 146.115 151.328 146.699 151.328ZM147.011 152.3C146.339 152.3 145.799 152.516 145.391 152.948C144.991 153.372 144.791 153.96 144.791 154.712C144.791 155.464 144.991 156.056 145.391 156.488C145.799 156.912 146.339 157.124 147.011 157.124C147.443 157.124 147.827 157.024 148.163 156.824C148.507 156.624 148.775 156.344 148.967 155.984C149.159 155.616 149.255 155.192 149.255 154.712C149.255 154.232 149.159 153.808 148.967 153.44C148.775 153.072 148.507 152.792 148.163 152.6C147.827 152.4 147.443 152.3 147.011 152.3ZM153.177 149.12V158H152.085V149.12H153.177ZM160.993 154.34C160.993 154.572 160.977 154.772 160.945 154.94H155.677C155.701 155.692 155.913 156.256 156.313 156.632C156.721 157.008 157.217 157.196 157.801 157.196C158.329 157.196 158.769 157.064 159.121 156.8C159.481 156.528 159.701 156.168 159.781 155.72H160.945C160.865 156.176 160.685 156.584 160.405 156.944C160.133 157.304 159.777 157.584 159.337 157.784C158.897 157.984 158.401 158.084 157.849 158.084C157.217 158.084 156.657 157.948 156.169 157.676C155.681 157.404 155.297 157.016 155.017 156.512C154.745 156 154.609 155.4 154.609 154.712C154.609 154.024 154.745 153.424 155.017 152.912C155.297 152.4 155.681 152.008 156.169 151.736C156.657 151.464 157.217 151.328 157.849 151.328C158.489 151.328 159.045 151.464 159.517 151.736C159.997 152.008 160.361 152.372 160.609 152.828C160.865 153.284 160.993 153.788 160.993 154.34ZM159.889 154.412C159.913 153.924 159.833 153.516 159.649 153.188C159.465 152.86 159.213 152.616 158.893 152.456C158.573 152.296 158.225 152.216 157.849 152.216C157.249 152.216 156.745 152.404 156.337 152.78C155.929 153.148 155.709 153.692 155.677 154.412H159.889ZM164.485 151.328C165.229 151.328 165.825 151.524 166.273 151.916C166.729 152.3 167.005 152.82 167.101 153.476H166.057C166.009 153.084 165.845 152.764 165.565 152.516C165.293 152.26 164.925 152.132 164.461 152.132C164.069 152.132 163.761 152.228 163.537 152.42C163.321 152.604 163.213 152.856 163.213 153.176C163.213 153.416 163.285 153.612 163.429 153.764C163.581 153.908 163.765 154.02 163.981 154.1C164.205 154.172 164.509 154.252 164.893 154.34C165.381 154.452 165.773 154.568 166.069 154.688C166.373 154.8 166.629 154.984 166.837 155.24C167.053 155.496 167.161 155.84 167.161 156.272C167.161 156.808 166.957 157.244 166.549 157.58C166.149 157.916 165.613 158.084 164.941 158.084C164.157 158.084 163.517 157.896 163.021 157.52C162.525 157.144 162.233 156.62 162.145 155.948H163.201C163.241 156.348 163.413 156.672 163.717 156.92C164.029 157.168 164.437 157.292 164.941 157.292C165.317 157.292 165.609 157.196 165.817 157.004C166.033 156.812 166.141 156.56 166.141 156.248C166.141 155.992 166.065 155.788 165.913 155.636C165.761 155.484 165.573 155.368 165.349 155.288C165.125 155.208 164.817 155.124 164.425 155.036C163.937 154.924 163.545 154.812 163.249 154.7C162.961 154.588 162.713 154.412 162.505 154.172C162.305 153.924 162.205 153.592 162.205 153.176C162.205 152.624 162.409 152.18 162.817 151.844C163.225 151.5 163.781 151.328 164.485 151.328ZM174.476 151.412V158H173.384V156.452C173.216 156.988 172.916 157.4 172.484 157.688C172.06 157.968 171.564 158.108 170.996 158.108C170.236 158.108 169.62 157.864 169.148 157.376C168.676 156.88 168.44 156.172 168.44 155.252V151.412H169.532V155.144C169.532 155.8 169.7 156.308 170.036 156.668C170.372 157.02 170.828 157.196 171.404 157.196C172.004 157.196 172.484 157.004 172.844 156.62C173.204 156.228 173.384 155.66 173.384 154.916V151.412H174.476ZM178.926 151.328C179.566 151.328 180.106 151.488 180.546 151.808C180.994 152.128 181.306 152.556 181.482 153.092V151.412H182.574V158H181.482V156.32C181.306 156.856 180.994 157.284 180.546 157.604C180.106 157.924 179.566 158.084 178.926 158.084C178.342 158.084 177.822 157.948 177.366 157.676C176.91 157.404 176.55 157.016 176.286 156.512C176.03 156 175.902 155.4 175.902 154.712C175.902 154.024 176.03 153.424 176.286 152.912C176.55 152.4 176.91 152.008 177.366 151.736C177.822 151.464 178.342 151.328 178.926 151.328ZM179.238 152.3C178.566 152.3 178.026 152.516 177.618 152.948C177.218 153.372 177.018 153.96 177.018 154.712C177.018 155.464 177.218 156.056 177.618 156.488C178.026 156.912 178.566 157.124 179.238 157.124C179.67 157.124 180.054 157.024 180.39 156.824C180.734 156.624 181.002 156.344 181.194 155.984C181.386 155.616 181.482 155.192 181.482 154.712C181.482 154.232 181.386 153.808 181.194 153.44C181.002 153.072 180.734 152.792 180.39 152.6C180.054 152.4 179.67 152.3 179.238 152.3ZM187.012 151.328C187.652 151.328 188.192 151.488 188.632 151.808C189.08 152.128 189.392 152.556 189.568 153.092V149.12H190.66V158H189.568V156.32C189.392 156.856 189.08 157.284 188.632 157.604C188.192 157.924 187.652 158.084 187.012 158.084C186.428 158.084 185.908 157.948 185.452 157.676C184.996 157.404 184.636 157.016 184.372 156.512C184.116 156 183.988 155.4 183.988 154.712C183.988 154.024 184.116 153.424 184.372 152.912C184.636 152.4 184.996 152.008 185.452 151.736C185.908 151.464 186.428 151.328 187.012 151.328ZM187.324 152.3C186.652 152.3 186.112 152.516 185.704 152.948C185.304 153.372 185.104 153.96 185.104 154.712C185.104 155.464 185.304 156.056 185.704 156.488C186.112 156.912 186.652 157.124 187.324 157.124C187.756 157.124 188.14 157.024 188.476 156.824C188.82 156.624 189.088 156.344 189.28 155.984C189.472 155.616 189.568 155.192 189.568 154.712C189.568 154.232 189.472 153.808 189.28 153.44C189.088 153.072 188.82 152.792 188.476 152.6C188.14 152.4 187.756 152.3 187.324 152.3ZM195.097 151.328C195.737 151.328 196.277 151.488 196.717 151.808C197.165 152.128 197.477 152.556 197.653 153.092V151.412H198.745V158H197.653V156.32C197.477 156.856 197.165 157.284 196.717 157.604C196.277 157.924 195.737 158.084 195.097 158.084C194.513 158.084 193.993 157.948 193.537 157.676C193.081 157.404 192.721 157.016 192.457 156.512C192.201 156 192.073 155.4 192.073 154.712C192.073 154.024 192.201 153.424 192.457 152.912C192.721 152.4 193.081 152.008 193.537 151.736C193.993 151.464 194.513 151.328 195.097 151.328ZM195.409 152.3C194.737 152.3 194.197 152.516 193.789 152.948C193.389 153.372 193.189 153.96 193.189 154.712C193.189 155.464 193.389 156.056 193.789 156.488C194.197 156.912 194.737 157.124 195.409 157.124C195.841 157.124 196.225 157.024 196.561 156.824C196.905 156.624 197.173 156.344 197.365 155.984C197.557 155.616 197.653 155.192 197.653 154.712C197.653 154.232 197.557 153.808 197.365 153.44C197.173 153.072 196.905 152.792 196.561 152.6C196.225 152.4 195.841 152.3 195.409 152.3ZM201.287 156.716V158H199.967V156.716H201.287ZM203.338 156.716V158H202.018V156.716H203.338ZM205.389 156.716V158H204.069V156.716H205.389Z" fill="black" fill-opacity="0.5"/>
<path d="M26.021 105.949C26.2904 92.8191 29.1432 79.8713 34.4165 67.8444C39.6899 55.8175 47.2804 44.947 56.7548 35.8536C66.2292 26.7602 77.4019 19.6219 89.635 14.8464C101.868 10.0709 114.922 7.75164 128.051 8.02104C141.181 8.29045 154.129 11.1432 166.156 16.4166C178.183 21.6899 189.053 29.2804 198.146 38.7548C207.24 48.2292 214.378 59.4019 219.154 71.635C223.929 83.8681 226.248 96.922 225.979 110.051L211.142 109.747C211.371 98.566 209.396 87.4494 205.329 77.0317C201.262 66.614 195.184 57.0994 187.44 49.031C179.696 40.9627 170.438 34.4986 160.196 30.0079C149.954 25.5171 138.928 23.0877 127.747 22.8583C116.566 22.6289 105.449 24.6039 95.0317 28.6708C84.614 32.7376 75.0994 38.8165 67.031 46.5604C58.9627 54.3043 52.4986 63.5616 48.0079 73.8036C43.5171 84.0457 41.0877 95.072 40.8583 106.253L26.021 105.949Z" fill="white"/>
<path d="M25 106C25 81.658 33.7912 58.135 49.7558 39.7594C65.7204 21.3838 87.7843 9.39206 111.888 5.99081C135.991 2.58957 160.511 8.00766 180.937 21.2481C201.363 34.4885 216.32 54.6604 223.056 78.0519L202.349 84.0148C197.05 65.614 185.284 49.7459 169.216 39.3304C153.148 28.9148 133.859 24.6527 114.898 27.3283C95.9379 30.0039 78.5814 39.4371 66.0229 53.8922C53.4644 68.3472 46.5489 86.8515 46.5489 106L25 106Z" fill="#F1C0AB"/>
<path d="M20 106C20 88.9519 24.1119 72.1554 31.987 57.0352C39.8621 41.915 51.2679 28.9173 65.2369 19.1447C79.2059 9.37211 95.3259 3.11298 112.23 0.898266C129.133 -1.31645 146.322 0.578603 162.337 6.42266L152.205 34.1869C140.655 29.9723 128.26 28.6057 116.069 30.2029C103.879 31.8001 92.2531 36.314 82.1789 43.3618C72.1048 50.4096 63.8791 59.7832 58.1998 70.6876C52.5205 81.592 49.5551 93.7053 49.5551 106L20 106Z" fill="#833210"/>
</svg>
