<svg width="36" height="37" viewBox="0 0 36 37" fill="none" xmlns="http://www.w3.org/2000/svg">
<path fill-rule="evenodd" clip-rule="evenodd" d="M1.12129 10.0922H32.3247L22.9899 1.72295C22.5515 1.32836 22.5515 0.689534 22.9899 0.295947C23.4283 -0.0986491 24.1381 -0.0986491 24.5754 0.295947L35.6762 10.286C36.1079 10.6745 36.1079 11.3245 35.6762 11.713L24.5754 21.7041C24.137 22.0986 23.4272 22.0986 22.9899 21.7041C22.5515 21.3095 22.5515 20.6706 22.9899 20.277L32.3247 12.1106H1.12129C0.502334 12.1106 -1.55676e-06 11.6585 -1.55676e-06 11.1014C-1.55676e-06 10.5443 0.502334 10.0922 1.12129 10.0922Z" fill="#007BBD"/>
<path fill-rule="evenodd" clip-rule="evenodd" d="M34.8787 25.0922H3.67532L13.0101 16.723C13.4485 16.3284 13.4485 15.6895 13.0101 15.2959C12.5717 14.9014 11.8619 14.9014 11.4246 15.2959L0.323774 25.286C-0.107925 25.6745 -0.107925 26.3245 0.323774 26.713L11.4246 36.7041C11.863 37.0986 12.5728 37.0986 13.0101 36.7041C13.4485 36.3095 13.4485 35.6706 13.0101 35.277L3.67532 27.1106H34.8787C35.4977 27.1106 36 26.6585 36 26.1014C36 25.5443 35.4977 25.0922 34.8787 25.0922Z" fill="#007BBD"/>
</svg>
