<svg width="22" height="22" viewBox="0 0 22 22" fill="none" xmlns="http://www.w3.org/2000/svg">
<mask id="mask0_944_2747" style="mask-type:alpha" maskUnits="userSpaceOnUse" x="0" y="0" width="22" height="22">
<rect width="22" height="22" fill="#D9D9D9"/>
</mask>
<g mask="url(#mask0_944_2747)">
<path d="M3.66536 21.9997C3.1612 21.9997 2.7296 21.8202 2.37057 21.4611C2.01155 21.1021 1.83203 20.6705 1.83203 20.1663C1.83203 19.6622 2.01155 19.2306 2.37057 18.8715C2.7296 18.5125 3.1612 18.333 3.66536 18.333H18.332C18.8362 18.333 19.2678 18.5125 19.6268 18.8715C19.9859 19.2306 20.1654 19.6622 20.1654 20.1663C20.1654 20.6705 19.9859 21.1021 19.6268 21.4611C19.2678 21.8202 18.8362 21.9997 18.332 21.9997H3.66536ZM5.4987 14.6663H6.78203L13.932 7.53926L12.6258 6.23301L5.4987 13.383V14.6663ZM3.66536 15.583V12.9934C3.66536 12.8712 3.68828 12.7528 3.73411 12.6382C3.77995 12.5236 3.8487 12.4205 3.94036 12.3288L13.932 2.36009C14.1001 2.19204 14.2949 2.06217 14.5164 1.97051C14.7379 1.87884 14.9709 1.83301 15.2154 1.83301C15.4598 1.83301 15.6966 1.87884 15.9258 1.97051C16.1549 2.06217 16.3612 2.19967 16.5445 2.38301L17.8049 3.66634C17.9883 3.8344 18.122 4.03301 18.206 4.26217C18.29 4.49134 18.332 4.72815 18.332 4.97259C18.332 5.20176 18.29 5.4271 18.206 5.64863C18.122 5.87016 17.9883 6.07259 17.8049 6.25592L7.8362 16.2247C7.74453 16.3163 7.64141 16.3851 7.52682 16.4309C7.41224 16.4768 7.29384 16.4997 7.17161 16.4997H4.58203C4.32231 16.4997 4.1046 16.4118 3.92891 16.2361C3.75321 16.0604 3.66536 15.8427 3.66536 15.583Z" fill="#0778B5"/>
</g>
</svg>
